<svg version="1.1" id="Layer_1" xmlns="http://www.w3.org/2000/svg" xmlns:xlink="http://www.w3.org/1999/xlink" x="0px" y="0px"
	 width="100%" height="100%" viewBox="0 0 447 871" xml:space="preserve">
<rect x="12" y="12" width="423" height="847" rx="64" ry="64" fill="#05060A"/>
<path fill="#8383EC" opacity="1.000000" stroke="none" 
	d="
M395.704407,813.703125 
	C382.220428,827.592529 365.673584,832.988037 347.132935,833.001587 
	C263.470306,833.062561 179.807495,832.953857 96.145004,833.078735 
	C73.923851,833.111938 55.474537,825.558167 41.669346,807.804321 
	C31.616428,794.875977 28.009369,779.848938 27.995665,763.817749 
	C27.939535,698.154114 27.972210,632.490540 27.972204,566.826904 
	C27.972200,495.996857 27.971796,425.166809 27.973642,354.336761 
	C27.973719,351.418671 28.528254,348.504395 24.822302,346.845795 
	C23.679895,346.334534 22.942471,343.712708 22.934446,342.052826 
	C22.809582,316.221771 22.802183,290.389832 22.901312,264.558594 
	C22.907808,262.865784 23.552881,260.143372 24.658798,259.669830 
	C28.893740,257.856506 27.957289,254.456223 27.958494,251.304337 
	C27.977919,200.473358 27.930517,149.642349 27.994085,98.811447 
	C28.017487,80.098198 32.716713,63.056973 45.479183,48.604771 
	C56.154716,36.515800 69.683624,30.778502 85.240326,29.107231 
	C91.186844,28.468391 97.218811,28.459051 103.212334,28.448751 
	C182.541824,28.312426 261.871399,28.222795 341.200958,28.132797 
	C356.221039,28.115757 370.794952,30.165199 383.895111,38.189907 
	C401.893097,49.214870 411.609375,66.038429 412.714783,86.418808 
	C414.282532,115.323303 413.693085,144.344742 414.030121,173.316147 
	C414.061615,176.023773 413.444855,178.726746 416.845306,180.472763 
	C418.075470,181.104431 418.633759,183.962234 418.679108,185.824203 
	C418.869843,193.652222 419.033905,201.504562 418.571350,209.310318 
	C418.433350,211.639481 416.169250,213.818420 414.988190,216.122025 
	C414.516632,217.041748 414.097412,218.106155 414.071136,219.115555 
	C413.967072,223.112671 414.031189,227.114075 414.026703,231.113892 
	C414.023438,234.013992 413.424835,236.878632 416.989288,238.735214 
	C418.201996,239.366852 418.710907,242.263840 418.727600,244.132950 
	C418.861542,259.130829 418.936523,274.132965 418.657135,289.126862 
	C418.613708,291.457672 417.018951,294.006897 415.531342,295.999573 
	C413.756134,298.377472 413.600128,306.689819 415.317596,308.812469 
	C416.847656,310.703491 418.606476,313.151611 418.648560,315.384338 
	C418.928101,330.211365 418.817017,345.046875 418.700684,359.878632 
	C418.686890,361.639984 418.439545,364.288605 417.327759,364.994904 
	C413.036865,367.720978 414.040588,371.721039 414.040161,375.514618 
	C414.025208,503.342010 413.993378,631.169434 414.075012,758.996826 
	C414.084320,773.537537 412.354309,787.625244 405.149994,800.481750 
	C402.572845,805.080750 399.052704,809.151367 395.704407,813.703125 
M60.537174,288.121735 
	C59.029102,290.505493 57.305870,292.781677 56.050716,295.291901 
	C50.974506,305.444031 50.573986,316.451843 50.572239,327.475220 
	C50.550335,465.454529 50.547356,603.433838 50.580429,741.413147 
	C50.582741,751.058960 50.429386,760.742004 51.179081,770.342896 
	C52.946693,792.979797 65.716225,806.886292 88.105797,810.065125 
	C98.117294,811.486572 108.361015,811.723572 118.499580,811.726501 
	C190.821869,811.747070 263.144318,811.611145 335.466309,811.384827 
	C342.428497,811.363037 349.471405,810.891052 356.332275,809.754944 
	C375.776581,806.535156 388.149414,793.517761 390.079529,773.892883 
	C391.294373,761.541077 392.033539,749.088501 392.042358,736.680481 
	C392.131073,612.199280 392.023407,487.717926 391.972900,363.236633 
	C391.967834,350.739624 392.602203,338.200867 391.773315,325.759186 
	C391.138550,316.231232 390.093567,306.273041 386.697540,297.485291 
	C380.314789,280.968872 366.182190,273.418396 349.210114,273.259064 
	C292.226013,272.724091 235.234863,272.906891 178.246384,272.887146 
	C150.251389,272.877441 122.255630,272.933563 94.261620,273.145020 
	C81.222878,273.243500 69.760490,277.401581 60.537174,288.121735 
M330.500183,245.489822 
	C334.165558,245.477127 337.887787,245.870209 341.484314,245.366180 
	C348.677551,244.358063 356.296051,244.053940 362.862732,241.339493 
	C383.124115,232.964172 392.296692,216.197800 392.748596,195.179062 
	C393.432373,163.374130 393.286407,131.535736 392.716217,99.725487 
	C392.385956,81.301132 384.390472,66.392235 368.334747,56.406696 
	C358.587372,50.344498 347.685120,49.234657 336.621857,49.225285 
	C263.315277,49.163162 190.008560,49.171665 116.701950,49.225574 
	C109.215202,49.231079 101.693970,49.317024 94.249481,50.014236 
	C78.980499,51.444252 66.805603,58.631622 57.953053,71.155754 
	C49.158127,83.598366 49.023315,98.050621 49.013180,112.412704 
	C48.994381,139.053711 48.890247,165.700912 49.455536,192.332062 
	C49.614758,199.833130 50.720730,207.810989 53.569466,214.665405 
	C62.309116,235.694061 79.084999,245.418304 101.584373,245.437042 
	C177.556244,245.500290 253.528198,245.480637 330.500183,245.489822 
M322.356201,269.453705 
	C331.684753,269.626282 341.059265,269.270172 350.332642,270.076996 
	C372.433441,271.999756 387.665009,283.047333 392.474274,304.675079 
	C394.620239,314.325562 395.074738,324.509918 395.086578,334.453430 
	C395.247162,469.113281 395.194733,603.773376 395.194977,738.433411 
	C395.194977,741.553894 395.194977,744.674438 395.194977,748.075806 
	C399.821777,748.075806 404.197113,748.075806 408.580780,748.075806 
	C408.580780,536.566162 408.580780,325.367676 408.580780,114.425316 
	C404.269806,114.425316 400.360229,114.425316 396.195038,114.425316 
	C396.195038,116.794556 396.198730,118.777122 396.194458,120.759666 
	C396.142059,145.091278 396.394592,169.428528 395.946686,193.752869 
	C395.522949,216.765167 386.047668,234.537537 364.216766,244.326813 
	C356.122833,247.956238 347.503448,248.540115 338.809174,248.552979 
	C261.979706,248.666641 185.150269,248.778259 108.320770,248.833786 
	C103.500076,248.837265 98.658279,248.569290 93.861694,248.080322 
	C70.744560,245.723709 52.767136,230.421051 48.097260,207.817505 
	C46.236835,198.812531 46.470665,189.304688 46.375179,180.019348 
	C46.151096,158.229233 46.303467,136.435257 46.303467,114.439026 
	C41.746067,114.439026 37.566299,114.439026 33.341869,114.439026 
	C33.341869,325.927765 33.341869,537.014282 33.341869,747.977051 
	C38.062138,747.977051 42.454903,747.977051 47.133163,747.977051 
	C47.133163,733.589661 47.133163,719.609924 47.133163,705.630127 
	C47.133175,579.469666 47.129509,453.309204 47.139713,327.148743 
	C47.140594,316.264679 47.747585,305.355438 52.425636,295.363220 
	C60.495583,278.126007 75.113686,270.676880 93.436272,270.144653 
	C110.418594,269.651306 127.422073,269.851074 144.416382,269.811920 
	C203.407654,269.676025 262.399017,269.568970 322.356201,269.453705 
M405.445099,786.757019 
	C406.893524,777.695129 408.341919,768.633240 409.844391,759.233154 
	C403.916168,759.233154 399.518158,759.233154 395.001862,759.233154 
	C394.638031,763.229980 394.233948,766.870422 393.986298,770.521423 
	C392.492126,792.549500 379.894012,808.146301 359.154327,812.369263 
	C351.230988,813.982666 342.960876,814.440186 334.844879,814.473267 
	C270.868774,814.734314 206.891754,814.829529 142.915009,814.822815 
	C126.261154,814.821106 109.594940,814.586731 92.956482,813.913513 
	C69.270477,812.955139 54.157043,800.149780 49.100430,777.058777 
	C47.802795,771.133179 47.437893,765.003296 46.651661,759.021851 
	C42.054226,759.021851 37.779861,759.021851 33.164108,759.021851 
	C32.268219,779.435303 37.250252,797.431763 52.120995,811.881470 
	C64.612473,824.019409 80.103477,827.970825 96.969406,827.972473 
	C177.940125,827.980347 258.910828,827.994751 339.881531,827.937683 
	C345.862854,827.933472 351.864258,827.602539 357.821259,827.047363 
	C379.516541,825.025208 399.223999,808.490540 405.445099,786.757019 
M207.500336,33.529346 
	C170.846420,33.529446 134.192184,33.621361 97.538696,33.496471 
	C74.186340,33.416901 54.628628,40.534260 42.288498,61.744576 
	C34.972221,74.319855 32.644726,88.010277 33.401241,102.699371 
	C37.790951,102.699371 41.716732,102.699371 46.148949,102.699371 
	C46.148949,101.161057 46.068138,99.708344 46.161297,98.266876 
	C47.233498,81.676559 53.404896,67.523407 66.798798,57.250954 
	C78.281624,48.444195 91.793289,46.123581 105.924294,46.130283 
	C182.896988,46.166786 259.869720,46.132786 336.842407,46.185177 
	C341.327942,46.188229 345.842529,46.503700 350.293243,47.069794 
	C369.247375,49.480602 382.672119,59.923344 390.356201,76.976334 
	C393.894104,84.827911 395.053406,93.751297 397.422302,102.682739 
	C400.412994,102.682739 404.302643,102.682739 408.335083,102.682739 
	C408.971588,90.208740 407.518799,78.353775 402.476624,67.257202 
	C392.372284,45.020241 374.050354,34.359596 350.441589,33.999424 
	C303.136444,33.277756 255.815048,33.623936 207.500336,33.529346 
M27.024986,301.500000 
	C27.024986,315.280273 27.024986,329.060547 27.024986,342.840820 
	C27.241987,342.838898 27.458990,342.837006 27.675991,342.835114 
	C27.675991,316.597992 27.675991,290.360840 27.675991,264.123718 
	C27.458990,264.123077 27.241987,264.122437 27.024986,264.121796 
	C27.024986,276.247864 27.024986,288.373932 27.024986,301.500000 
M41.397366,755.781616 
	C43.182919,755.781616 44.968475,755.781616 46.722668,755.781616 
	C46.971424,751.106934 41.851204,749.948425 31.541435,752.624817 
	C33.640102,754.105286 34.720390,755.276428 36.036770,755.682861 
	C37.396969,756.102844 38.986595,755.779724 41.397366,755.781616 
M397.297272,751.467529 
	C396.463379,752.530640 395.629486,753.593750 394.099640,755.544067 
	C399.874939,755.544067 404.251038,755.544067 408.686676,755.544067 
	C409.690765,752.640320 408.891174,751.199097 405.601654,751.387329 
	C403.127747,751.528809 400.639587,751.421204 397.297272,751.467529 
M42.311134,110.970985 
	C46.249584,110.523209 46.249584,110.523209 45.354652,106.277611 
	C41.367054,106.277611 37.354897,106.277611 33.034504,106.277611 
	C33.248901,108.093399 33.410568,109.462631 33.588707,110.971352 
	C36.465286,110.971352 38.924042,110.971352 42.311134,110.970985 
M396.360687,110.215736 
	C400.387817,110.564751 404.414948,110.913765 408.373169,111.256805 
	C409.702545,107.515030 408.691864,106.026093 405.298584,106.093864 
	C403.148956,106.136810 400.984741,106.115044 398.846802,105.913307 
	C396.007874,105.645424 396.008514,107.361107 396.360687,110.215736 
M414.061920,259.502502 
	C414.061920,269.484497 414.061920,279.466461 414.061920,289.448456 
	C414.290985,289.444489 414.520020,289.440521 414.749084,289.436554 
	C414.749084,274.011688 414.749084,258.586823 414.749084,243.161972 
	C414.518524,243.160080 414.287994,243.158203 414.057434,243.156311 
	C414.057434,248.272278 414.057434,253.388245 414.061920,259.502502 
M414.035217,329.504608 
	C414.035217,339.851868 414.035217,350.199127 414.035217,360.546387 
	C414.279572,360.542938 414.523956,360.539459 414.768311,360.535980 
	C414.768311,345.120911 414.768311,329.705872 414.768311,314.290802 
	C414.522980,314.285278 414.277649,314.279785 414.032318,314.274261 
	C414.032318,319.018799 414.032318,323.763336 414.035217,329.504608 
M414.054047,189.078491 
	C414.054047,196.142288 414.054047,203.206070 414.054047,210.269867 
	C414.279694,210.262772 414.505341,210.255676 414.730988,210.248581 
	C414.730988,201.994110 414.730988,193.739655 414.730988,185.485184 
	C414.577148,185.477020 414.423340,185.468857 414.269501,185.460693 
	C414.195343,186.392914 414.121185,187.325134 414.054047,189.078491 
z"/>
<path fill="none" opacity="1.000000" stroke="none" 
	d="
M60.765083,287.842712 
	C69.760490,277.401581 81.222878,273.243500 94.261620,273.145020 
	C122.255630,272.933563 150.251389,272.877441 178.246384,272.887146 
	C235.234863,272.906891 292.226013,272.724091 349.210114,273.259064 
	C366.182190,273.418396 380.314789,280.968872 386.697540,297.485291 
	C390.093567,306.273041 391.138550,316.231232 391.773315,325.759186 
	C392.602203,338.200867 391.967834,350.739624 391.972900,363.236633 
	C392.023407,487.717926 392.131073,612.199280 392.042358,736.680481 
	C392.033539,749.088501 391.294373,761.541077 390.079529,773.892883 
	C388.149414,793.517761 375.776581,806.535156 356.332275,809.754944 
	C349.471405,810.891052 342.428497,811.363037 335.466309,811.384827 
	C263.144318,811.611145 190.821869,811.747070 118.499580,811.726501 
	C108.361015,811.723572 98.117294,811.486572 88.105797,810.065125 
	C65.716225,806.886292 52.946693,792.979797 51.179081,770.342896 
	C50.429386,760.742004 50.582741,751.058960 50.580429,741.413147 
	C50.547356,603.433838 50.550335,465.454529 50.572239,327.475220 
	C50.573986,316.451843 50.974506,305.444031 56.050716,295.291901 
	C57.305870,292.781677 59.029102,290.505493 60.765083,287.842712 
z"/>
<path fill="none" opacity="1.000000" stroke="none" 
	d="
M330.000153,245.491241 
	C253.528198,245.480637 177.556244,245.500290 101.584373,245.437042 
	C79.084999,245.418304 62.309116,235.694061 53.569466,214.665405 
	C50.720730,207.810989 49.614758,199.833130 49.455536,192.332062 
	C48.890247,165.700912 48.994381,139.053711 49.013180,112.412704 
	C49.023315,98.050621 49.158127,83.598366 57.953053,71.155754 
	C66.805603,58.631622 78.980499,51.444252 94.249481,50.014236 
	C101.693970,49.317024 109.215202,49.231079 116.701950,49.225574 
	C190.008560,49.171665 263.315277,49.163162 336.621857,49.225285 
	C347.685120,49.234657 358.587372,50.344498 368.334747,56.406696 
	C384.390472,66.392235 392.385956,81.301132 392.716217,99.725487 
	C393.286407,131.535736 393.432373,163.374130 392.748596,195.179062 
	C392.296692,216.197800 383.124115,232.964172 362.862732,241.339493 
	C356.296051,244.053940 348.677551,244.358063 341.484314,245.366180 
	C337.887787,245.870209 334.165558,245.477127 330.000153,245.491241 
M238.139297,120.503494 
	C238.080597,112.509193 238.404404,104.489532 237.876465,96.526344 
	C237.014542,83.525742 231.603989,72.621407 221.808014,63.807556 
	C211.720932,54.731781 199.528076,52.275108 186.640366,52.145439 
	C166.817307,51.945992 146.990158,51.999733 127.165939,52.129402 
	C116.521072,52.199032 105.825294,52.072674 95.246201,53.049625 
	C72.318596,55.166924 53.503227,74.691193 53.083309,97.583794 
	C52.481613,130.386353 52.812218,163.206604 52.843655,196.019196 
	C52.846657,199.151657 53.209362,202.370331 53.982605,205.401657 
	C59.459522,226.872574 76.612564,241.508255 98.901688,242.053497 
	C129.537109,242.802887 160.199036,242.535172 190.849777,242.573486 
	C221.219604,242.611450 238.892151,217.489517 238.338730,192.969635 
	C237.801300,169.157806 238.165649,145.325623 238.139297,120.503494 
M390.039001,166.500137 
	C389.733337,144.011658 389.844604,121.507484 388.999603,99.039276 
	C388.223297,78.397530 377.238983,64.160057 358.614471,55.864601 
	C353.452240,53.565334 347.812836,52.185349 341.840027,54.250031 
	C343.430878,55.530773 345.204285,56.272911 347.025360,56.418240 
	C366.044434,57.936077 385.043121,75.265053 385.754028,97.056313 
	C386.791168,128.847382 386.842834,160.690765 386.458069,192.501495 
	C386.165466,216.694107 369.723755,236.085297 345.740997,238.612900 
	C344.321777,238.762482 342.960205,239.458832 341.571808,239.900726 
	C341.622772,240.338028 341.673767,240.775330 341.724731,241.212616 
	C342.737152,241.432816 343.765656,241.901077 344.759583,241.836548 
	C364.448944,240.558609 381.537598,226.719315 387.135834,207.696899 
	C391.020447,194.497299 389.946289,180.961349 390.039001,166.500137 
M335.490936,180.806351 
	C334.305115,181.710159 333.006744,182.499527 331.952301,183.536865 
	C326.350494,189.047852 324.289062,195.716888 327.155579,203.072830 
	C329.879730,210.063431 334.933899,215.122681 342.799774,216.035965 
	C350.839050,216.969391 358.605377,212.401321 361.933838,205.329224 
	C365.328430,198.116592 363.787628,188.889465 358.563904,183.538528 
	C353.912201,178.773575 343.168762,175.575546 335.490936,180.806351 
M327.676727,102.459305 
	C332.341278,115.485451 345.574951,119.694954 356.436371,111.607498 
	C362.559875,107.047897 364.904785,98.080193 361.960419,90.481514 
	C359.438995,83.974297 350.739166,78.359688 344.174927,79.003288 
	C331.930023,80.203865 325.454224,88.936729 327.676727,102.459305 
M340.223572,149.097046 
	C342.143555,150.373306 343.935669,152.163010 346.042816,152.687897 
	C346.960571,152.916504 349.639191,150.466705 349.558350,149.378967 
	C349.401001,147.261627 348.332672,144.017654 346.802155,143.431183 
	C342.940643,141.951477 340.570221,144.276230 340.223572,149.097046 
z"/>
<path fill="none" opacity="1.000000" stroke="none" 
	d="
M321.873260,269.452332 
	C262.399017,269.568970 203.407654,269.676025 144.416382,269.811920 
	C127.422073,269.851074 110.418594,269.651306 93.436272,270.144653 
	C75.113686,270.676880 60.495583,278.126007 52.425636,295.363220 
	C47.747585,305.355438 47.140594,316.264679 47.139713,327.148743 
	C47.129509,453.309204 47.133175,579.469666 47.133163,705.630127 
	C47.133163,719.609924 47.133163,733.589661 47.133163,747.977051 
	C42.454903,747.977051 38.062138,747.977051 33.341869,747.977051 
	C33.341869,537.014282 33.341869,325.927765 33.341869,114.439026 
	C37.566299,114.439026 41.746067,114.439026 46.303467,114.439026 
	C46.303467,136.435257 46.151096,158.229233 46.375179,180.019348 
	C46.470665,189.304688 46.236835,198.812531 48.097260,207.817505 
	C52.767136,230.421051 70.744560,245.723709 93.861694,248.080322 
	C98.658279,248.569290 103.500076,248.837265 108.320770,248.833786 
	C185.150269,248.778259 261.979706,248.666641 338.809174,248.552979 
	C347.503448,248.540115 356.122833,247.956238 364.216766,244.326813 
	C386.047668,234.537537 395.522949,216.765167 395.946686,193.752869 
	C396.394592,169.428528 396.142059,145.091278 396.194458,120.759666 
	C396.198730,118.777122 396.195038,116.794556 396.195038,114.425316 
	C400.360229,114.425316 404.269806,114.425316 408.580780,114.425316 
	C408.580780,325.367676 408.580780,536.566162 408.580780,748.075806 
	C404.197113,748.075806 399.821777,748.075806 395.194977,748.075806 
	C395.194977,744.674438 395.194977,741.553894 395.194977,738.433411 
	C395.194733,603.773376 395.247162,469.113281 395.086578,334.453430 
	C395.074738,324.509918 394.620239,314.325562 392.474274,304.675079 
	C387.665009,283.047333 372.433441,271.999756 350.332642,270.076996 
	C341.059265,269.270172 331.684753,269.626282 321.873260,269.452332 
z"/>
<path fill="none" opacity="1.000000" stroke="none" 
	d="
M405.313171,787.133728 
	C399.223999,808.490540 379.516541,825.025208 357.821259,827.047363 
	C351.864258,827.602539 345.862854,827.933472 339.881531,827.937683 
	C258.910828,827.994751 177.940125,827.980347 96.969406,827.972473 
	C80.103477,827.970825 64.612473,824.019409 52.120995,811.881470 
	C37.250252,797.431763 32.268219,779.435303 33.164108,759.021851 
	C37.779861,759.021851 42.054226,759.021851 46.651661,759.021851 
	C47.437893,765.003296 47.802795,771.133179 49.100430,777.058777 
	C54.157043,800.149780 69.270477,812.955139 92.956482,813.913513 
	C109.594940,814.586731 126.261154,814.821106 142.915009,814.822815 
	C206.891754,814.829529 270.868774,814.734314 334.844879,814.473267 
	C342.960876,814.440186 351.230988,813.982666 359.154327,812.369263 
	C379.894012,808.146301 392.492126,792.549500 393.986298,770.521423 
	C394.233948,766.870422 394.638031,763.229980 395.001862,759.233154 
	C399.518158,759.233154 403.916168,759.233154 409.844391,759.233154 
	C408.341919,768.633240 406.893524,777.695129 405.313171,787.133728 
z"/>
<path fill="none" opacity="1.000000" stroke="none" 
	d="
M208.000336,33.529320 
	C255.815048,33.623936 303.136444,33.277756 350.441589,33.999424 
	C374.050354,34.359596 392.372284,45.020241 402.476624,67.257202 
	C407.518799,78.353775 408.971588,90.208740 408.335083,102.682739 
	C404.302643,102.682739 400.412994,102.682739 397.422302,102.682739 
	C395.053406,93.751297 393.894104,84.827911 390.356201,76.976334 
	C382.672119,59.923344 369.247375,49.480602 350.293243,47.069794 
	C345.842529,46.503700 341.327942,46.188229 336.842407,46.185177 
	C259.869720,46.132786 182.896988,46.166786 105.924294,46.130283 
	C91.793289,46.123581 78.281624,48.444195 66.798798,57.250954 
	C53.404896,67.523407 47.233498,81.676559 46.161297,98.266876 
	C46.068138,99.708344 46.148949,101.161057 46.148949,102.699371 
	C41.716732,102.699371 37.790951,102.699371 33.401241,102.699371 
	C32.644726,88.010277 34.972221,74.319855 42.288498,61.744576 
	C54.628628,40.534260 74.186340,33.416901 97.538696,33.496471 
	C134.192184,33.621361 170.846420,33.529446 208.000336,33.529320 
z"/>
<path fill="none" opacity="1.000000" stroke="none" 
	d="
M27.024986,301.000000 
	C27.024986,288.373932 27.024986,276.247864 27.024986,264.121796 
	C27.241987,264.122437 27.458990,264.123077 27.675991,264.123718 
	C27.675991,290.360840 27.675991,316.597992 27.675991,342.835114 
	C27.458990,342.837006 27.241987,342.838898 27.024986,342.840820 
	C27.024986,329.060547 27.024986,315.280273 27.024986,301.000000 
z"/>
<path fill="none" opacity="1.000000" stroke="none" 
	d="
M40.936615,755.781616 
	C38.986595,755.779724 37.396969,756.102844 36.036770,755.682861 
	C34.720390,755.276428 33.640102,754.105286 31.541435,752.624817 
	C41.851204,749.948425 46.971424,751.106934 46.722668,755.781616 
	C44.968475,755.781616 43.182919,755.781616 40.936615,755.781616 
z"/>
<path fill="none" opacity="1.000000" stroke="none" 
	d="
M397.727539,751.446045 
	C400.639587,751.421204 403.127747,751.528809 405.601654,751.387329 
	C408.891174,751.199097 409.690765,752.640320 408.686676,755.544067 
	C404.251038,755.544067 399.874939,755.544067 394.099640,755.544067 
	C395.629486,753.593750 396.463379,752.530640 397.727539,751.446045 
z"/>
<path fill="none" opacity="1.000000" stroke="none" 
	d="
M41.846966,110.971169 
	C38.924042,110.971352 36.465286,110.971352 33.588707,110.971352 
	C33.410568,109.462631 33.248901,108.093399 33.034504,106.277611 
	C37.354897,106.277611 41.367054,106.277611 45.354652,106.277611 
	C46.249584,110.523209 46.249584,110.523209 41.846966,110.971169 
z"/>
<path fill="none" opacity="1.000000" stroke="none" 
	d="
M396.288239,109.773354 
	C396.008514,107.361107 396.007874,105.645424 398.846802,105.913307 
	C400.984741,106.115044 403.148956,106.136810 405.298584,106.093864 
	C408.691864,106.026093 409.702545,107.515030 408.373169,111.256805 
	C404.414948,110.913765 400.387817,110.564751 396.288239,109.773354 
z"/>
<path fill="none" opacity="1.000000" stroke="none" 
	d="
M414.059692,259.003357 
	C414.057434,253.388245 414.057434,248.272278 414.057434,243.156311 
	C414.287994,243.158203 414.518524,243.160080 414.749084,243.161972 
	C414.749084,258.586823 414.749084,274.011688 414.749084,289.436554 
	C414.520020,289.440521 414.290985,289.444489 414.061920,289.448456 
	C414.061920,279.466461 414.061920,269.484497 414.059692,259.003357 
z"/>
<path fill="none" opacity="1.000000" stroke="none" 
	d="
M414.033752,329.006226 
	C414.032318,323.763336 414.032318,319.018799 414.032318,314.274261 
	C414.277649,314.279785 414.522980,314.285278 414.768311,314.290802 
	C414.768311,329.705872 414.768311,345.120911 414.768311,360.535980 
	C414.523956,360.539459 414.279572,360.542938 414.035217,360.546387 
	C414.035217,350.199127 414.035217,339.851868 414.033752,329.006226 
z"/>
<path fill="none" opacity="1.000000" stroke="none" 
	d="
M414.050537,188.667923 
	C414.121185,187.325134 414.195343,186.392914 414.269501,185.460693 
	C414.423340,185.468857 414.577148,185.477020 414.730988,185.485184 
	C414.730988,193.739655 414.730988,201.994110 414.730988,210.248581 
	C414.505341,210.255676 414.279694,210.262772 414.054047,210.269867 
	C414.054047,203.206070 414.054047,196.142288 414.050537,188.667923 
z"/>
<path fill="#7A7ADD" opacity="1.000000" stroke="none" 
	d="
M238.136642,121.002937 
	C238.165649,145.325623 237.801300,169.157806 238.338730,192.969635 
	C238.892151,217.489517 221.219604,242.611450 190.849777,242.573486 
	C160.199036,242.535172 129.537109,242.802887 98.901688,242.053497 
	C76.612564,241.508255 59.459522,226.872574 53.982605,205.401657 
	C53.209362,202.370331 52.846657,199.151657 52.843655,196.019196 
	C52.812218,163.206604 52.481613,130.386353 53.083309,97.583794 
	C53.503227,74.691193 72.318596,55.166924 95.246201,53.049625 
	C105.825294,52.072674 116.521072,52.199032 127.165939,52.129402 
	C146.990158,51.999733 166.817307,51.945992 186.640366,52.145439 
	C199.528076,52.275108 211.720932,54.731781 221.808014,63.807556 
	C231.603989,72.621407 237.014542,83.525742 237.876465,96.526344 
	C238.404404,104.489532 238.080597,112.509193 238.136642,121.002937 
M137.500214,55.610954 
	C127.669167,55.610989 117.836456,55.502975 108.007767,55.655285 
	C102.865105,55.734970 97.567894,55.574249 92.618233,56.720966 
	C68.993439,62.194263 56.145039,78.109550 55.944256,102.356911 
	C55.694576,132.509125 55.683266,162.666412 55.924683,192.818665 
	C56.140850,219.817261 74.278511,238.539459 101.233849,239.040970 
	C131.049362,239.595703 160.884888,239.638657 190.703705,239.265411 
	C212.907242,238.987457 228.268021,227.000381 233.305923,206.343079 
	C234.934708,199.664551 234.839203,192.474915 234.878784,185.515350 
	C235.037933,157.523209 234.811401,129.528839 234.977798,101.536789 
	C235.123734,76.986099 217.147491,55.539955 190.485107,55.676846 
	C173.157394,55.765816 155.828568,55.640305 137.500214,55.610954 
z"/>
<path fill="#8282EA" opacity="1.000000" stroke="none" 
	d="
M390.044861,167.000153 
	C389.946289,180.961349 391.020447,194.497299 387.135834,207.696899 
	C381.537598,226.719315 364.448944,240.558609 344.759583,241.836548 
	C343.765656,241.901077 342.737152,241.432816 341.724731,241.212616 
	C341.673767,240.775330 341.622772,240.338028 341.571808,239.900726 
	C342.960205,239.458832 344.321777,238.762482 345.740997,238.612900 
	C369.723755,236.085297 386.165466,216.694107 386.458069,192.501495 
	C386.842834,160.690765 386.791168,128.847382 385.754028,97.056313 
	C385.043121,75.265053 366.044434,57.936077 347.025360,56.418240 
	C345.204285,56.272911 343.430878,55.530773 341.840027,54.250031 
	C347.812836,52.185349 353.452240,53.565334 358.614471,55.864601 
	C377.238983,64.160057 388.223297,78.397530 388.999603,99.039276 
	C389.844604,121.507484 389.733337,144.011658 390.044861,167.000153 
z"/>
<path fill="#8080E7" opacity="1.000000" stroke="none" 
	d="
M335.808899,180.604385 
	C343.168762,175.575546 353.912201,178.773575 358.563904,183.538528 
	C363.787628,188.889465 365.328430,198.116592 361.933838,205.329224 
	C358.605377,212.401321 350.839050,216.969391 342.799774,216.035965 
	C334.933899,215.122681 329.879730,210.063431 327.155579,203.072830 
	C324.289062,195.716888 326.350494,189.047852 331.952301,183.536865 
	C333.006744,182.499527 334.305115,181.710159 335.808899,180.604385 
M358.382172,188.491150 
	C357.737244,187.731781 357.142731,186.921875 356.439545,186.220947 
	C350.160980,179.962555 340.442841,179.527618 334.432007,185.214340 
	C327.873779,191.418915 327.341095,200.410706 333.131897,207.160477 
	C339.238403,214.278229 347.219543,215.012650 354.809662,209.155304 
	C360.436859,204.812744 361.905792,197.405457 358.382172,188.491150 
z"/>
<path fill="#7A7ADD" opacity="1.000000" stroke="none" 
	d="
M327.516418,102.071686 
	C325.454224,88.936729 331.930023,80.203865 344.174927,79.003288 
	C350.739166,78.359688 359.438995,83.974297 361.960419,90.481514 
	C364.904785,98.080193 362.559875,107.047897 356.436371,111.607498 
	C345.574951,119.694954 332.341278,115.485451 327.516418,102.071686 
M359.690094,104.792046 
	C360.051056,103.517410 360.529663,102.263100 360.753937,100.964851 
	C362.240234,92.362381 358.570068,85.820808 350.600769,82.757881 
	C342.971344,79.825592 335.488983,82.116615 331.477783,88.613121 
	C326.956299,95.936073 328.999725,106.242172 335.868652,110.758888 
	C343.759644,115.947662 353.258606,113.793205 359.690094,104.792046 
z"/>
<path fill="#7A7ADD" opacity="1.000000" stroke="none" 
	d="
M340.148926,148.721588 
	C340.570221,144.276230 342.940643,141.951477 346.802155,143.431183 
	C348.332672,144.017654 349.401001,147.261627 349.558350,149.378967 
	C349.639191,150.466705 346.960571,152.916504 346.042816,152.687897 
	C343.935669,152.163010 342.143555,150.373306 340.148926,148.721588 
M345.494598,145.074661 
	C344.590820,146.375534 343.687042,147.676407 342.783234,148.977280 
	C343.961456,149.436157 345.553101,150.618896 346.243835,150.224335 
	C348.771271,148.780670 348.168243,146.871780 345.494598,145.074661 
z"/>
<path fill="none" opacity="1.000000" stroke="none" 
	d="
M138.000229,55.610924 
	C155.828568,55.640305 173.157394,55.765816 190.485107,55.676846 
	C217.147491,55.539955 235.123734,76.986099 234.977798,101.536789 
	C234.811401,129.528839 235.037933,157.523209 234.878784,185.515350 
	C234.839203,192.474915 234.934708,199.664551 233.305923,206.343079 
	C228.268021,227.000381 212.907242,238.987457 190.703705,239.265411 
	C160.884888,239.638657 131.049362,239.595703 101.233849,239.040970 
	C74.278511,238.539459 56.140850,219.817261 55.924683,192.818665 
	C55.683266,162.666412 55.694576,132.509125 55.944256,102.356911 
	C56.145039,78.109550 68.993439,62.194263 92.618233,56.720966 
	C97.567894,55.574249 102.865105,55.734970 108.007767,55.655285 
	C117.836456,55.502975 127.669167,55.610989 138.000229,55.610924 
M221.880173,121.658142 
	C210.596008,108.704056 196.717468,102.997002 179.626541,106.972183 
	C159.474167,111.659431 145.649292,130.279877 147.223587,150.257034 
	C149.659210,181.164108 183.198456,199.018906 209.948593,183.733337 
	C230.885345,171.769623 237.810349,142.208145 221.880173,121.658142 
M142.477417,104.955627 
	C142.256531,100.661804 142.494278,96.284927 141.734329,92.088730 
	C138.655258,75.087074 123.381706,60.696514 106.887459,58.873142 
	C87.987610,56.783833 69.628754,66.683411 62.842308,83.197502 
	C56.364243,98.961174 57.961849,114.185921 69.216370,127.161034 
	C80.616859,140.304459 95.575775,145.357758 112.472862,140.325760 
	C129.352112,135.299072 139.726593,123.684792 142.477417,104.955627 
M59.791286,188.334290 
	C58.073563,199.393585 60.486954,209.397766 67.090004,218.499268 
	C78.670288,234.461243 101.199341,240.639938 118.247307,232.367340 
	C137.984192,222.789932 147.149689,202.978500 140.871475,182.582733 
	C133.956802,160.119308 117.405304,151.812851 98.783669,152.722855 
	C78.972900,153.690979 63.523090,166.682266 59.791286,188.334290 
M180.960709,96.740791 
	C188.243027,100.343094 196.479370,98.899483 201.795670,93.089005 
	C206.093170,88.392059 206.650223,78.535965 202.960968,72.470825 
	C199.026566,66.002693 189.032654,63.109932 182.329559,66.498993 
	C169.436111,73.017883 168.507889,86.996979 180.960709,96.740791 
M180.833252,199.056351 
	C179.767609,199.847015 178.621841,200.550415 177.649811,201.443008 
	C172.712616,205.976761 171.728149,211.781235 173.235458,217.890518 
	C174.709198,223.863754 178.373932,228.365982 184.654816,229.851974 
	C191.936737,231.574814 199.400452,228.167252 202.931503,221.854111 
	C206.853775,214.841522 206.412415,208.032288 201.885666,202.903885 
	C197.970505,198.468307 187.402176,194.304596 180.833252,199.056351 
z"/>
<path fill="none" opacity="1.000000" stroke="none" 
	d="
M358.577026,188.833038 
	C361.905792,197.405457 360.436859,204.812744 354.809662,209.155304 
	C347.219543,215.012650 339.238403,214.278229 333.131897,207.160477 
	C327.341095,200.410706 327.873779,191.418915 334.432007,185.214340 
	C340.442841,179.527618 350.160980,179.962555 356.439545,186.220947 
	C357.142731,186.921875 357.737244,187.731781 358.577026,188.833038 
z"/>
<path fill="none" opacity="1.000000" stroke="none" 
	d="
M359.481995,105.121201 
	C353.258606,113.793205 343.759644,115.947662 335.868652,110.758888 
	C328.999725,106.242172 326.956299,95.936073 331.477783,88.613121 
	C335.488983,82.116615 342.971344,79.825592 350.600769,82.757881 
	C358.570068,85.820808 362.240234,92.362381 360.753937,100.964851 
	C360.529663,102.263100 360.051056,103.517410 359.481995,105.121201 
z"/>
<path fill="none" opacity="1.000000" stroke="none" 
	d="
M345.851501,145.133270 
	C348.168243,146.871780 348.771271,148.780670 346.243835,150.224335 
	C345.553101,150.618896 343.961456,149.436157 342.783234,148.977280 
	C343.687042,147.676407 344.590820,146.375534 345.851501,145.133270 
z"/>
<path fill="#8181E9" opacity="1.000000" stroke="none" 
	d="
M222.092377,121.945618 
	C237.810349,142.208145 230.885345,171.769623 209.948593,183.733337 
	C183.198456,199.018906 149.659210,181.164108 147.223587,150.257034 
	C145.649292,130.279877 159.474167,111.659431 179.626541,106.972183 
	C196.717468,102.997002 210.596008,108.704056 222.092377,121.945618 
M210.715088,116.738403 
	C204.121429,112.067673 196.539642,109.343231 188.715622,109.744926 
	C173.324280,110.535126 161.292862,117.837639 154.662384,132.085236 
	C148.168015,146.040298 150.242508,159.527100 159.991791,171.259216 
	C169.579697,182.797134 182.373199,187.453918 197.079132,184.255814 
	C213.175858,180.755295 222.952942,170.066528 225.822372,154.028229 
	C228.490479,139.115112 223.639633,126.484825 210.715088,116.738403 
z"/>
<path fill="#8181E9" opacity="1.000000" stroke="none" 
	d="
M142.396286,105.386841 
	C139.726593,123.684792 129.352112,135.299072 112.472862,140.325760 
	C95.575775,145.357758 80.616859,140.304459 69.216370,127.161034 
	C57.961849,114.185921 56.364243,98.961174 62.842308,83.197502 
	C69.628754,66.683411 87.987610,56.783833 106.887459,58.873142 
	C123.381706,60.696514 138.655258,75.087074 141.734329,92.088730 
	C142.494278,96.284927 142.256531,100.661804 142.396286,105.386841 
M99.701828,137.977036 
	C116.737854,137.887909 128.947266,130.258286 135.754883,114.545815 
	C142.148285,99.789375 137.925507,82.632393 125.518562,71.948837 
	C112.302040,60.568161 95.356903,59.418125 80.245041,68.876167 
	C66.937286,77.205078 60.545311,93.775475 64.498001,109.302788 
	C69.044197,127.161545 81.576065,135.354752 99.701828,137.977036 
z"/>
<path fill="#8181E9" opacity="1.000000" stroke="none" 
	d="
M59.862450,187.909729 
	C63.523090,166.682266 78.972900,153.690979 98.783669,152.722855 
	C117.405304,151.812851 133.956802,160.119308 140.871475,182.582733 
	C147.149689,202.978500 137.984192,222.789932 118.247307,232.367340 
	C101.199341,240.639938 78.670288,234.461243 67.090004,218.499268 
	C60.486954,209.397766 58.073563,199.393585 59.862450,187.909729 
M135.717758,179.974289 
	C129.110565,161.938339 108.115158,153.208557 91.752480,157.941971 
	C76.966614,162.219223 67.290314,171.723648 64.104355,187.063080 
	C60.884232,202.566956 66.540764,215.013824 78.609138,224.414520 
	C91.242218,234.255081 110.376053,234.412292 122.063362,225.557510 
	C137.659607,213.741211 142.373001,198.551727 135.717758,179.974289 
z"/>
<path fill="#8181E9" opacity="1.000000" stroke="none" 
	d="
M180.655487,96.523972 
	C168.507889,86.996979 169.436111,73.017883 182.329559,66.498993 
	C189.032654,63.109932 199.026566,66.002693 202.960968,72.470825 
	C206.650223,78.535965 206.093170,88.392059 201.795670,93.089005 
	C196.479370,98.899483 188.243027,100.343094 180.655487,96.523972 
M202.199188,81.595665 
	C201.270508,72.743416 195.513947,67.764694 186.791824,68.270203 
	C180.990570,68.606430 174.846390,76.010078 175.033813,82.438484 
	C175.215637,88.675117 181.849121,95.820190 187.596695,95.970253 
	C196.022980,96.190262 201.607407,91.037468 202.199188,81.595665 
z"/>
<path fill="#8080E7" opacity="1.000000" stroke="none" 
	d="
M181.183136,198.898834 
	C187.402176,194.304596 197.970505,198.468307 201.885666,202.903885 
	C206.412415,208.032288 206.853775,214.841522 202.931503,221.854111 
	C199.400452,228.167252 191.936737,231.574814 184.654816,229.851974 
	C178.373932,228.365982 174.709198,223.863754 173.235458,217.890518 
	C171.728149,211.781235 172.712616,205.976761 177.649811,201.443008 
	C178.621841,200.550415 179.767609,199.847015 181.183136,198.898834 
M184.463470,226.557938 
	C190.287994,227.937057 195.366776,226.900314 199.085327,221.847626 
	C202.212189,217.598923 203.575562,212.981689 201.245697,207.895981 
	C198.999146,202.992081 191.931641,199.190109 186.858170,200.025421 
	C181.953186,200.832977 176.949402,205.683594 176.012360,210.539276 
	C174.748932,217.086319 177.640350,222.938614 184.463470,226.557938 
z"/>
<path fill="none" opacity="1.000000" stroke="none" 
	d="
M211.021790,116.928284 
	C223.639633,126.484825 228.490479,139.115112 225.822372,154.028229 
	C222.952942,170.066528 213.175858,180.755295 197.079132,184.255814 
	C182.373199,187.453918 169.579697,182.797134 159.991791,171.259216 
	C150.242508,159.527100 148.168015,146.040298 154.662384,132.085236 
	C161.292862,117.837639 173.324280,110.535126 188.715622,109.744926 
	C196.539642,109.343231 204.121429,112.067673 211.021790,116.928284 
M156.433868,136.251740 
	C156.121094,142.494629 154.599350,148.967239 155.733368,154.935211 
	C158.576721,169.898621 174.030029,186.197998 198.610291,180.078857 
	C214.995728,175.999786 226.022705,155.899719 222.217941,140.266159 
	C218.292160,124.135406 202.949539,111.155998 186.872360,113.181351 
	C173.024567,114.925858 162.247650,121.947899 156.433868,136.251740 
z"/>
<path fill="none" opacity="1.000000" stroke="none" 
	d="
M99.254341,137.979187 
	C81.576065,135.354752 69.044197,127.161545 64.498001,109.302788 
	C60.545311,93.775475 66.937286,77.205078 80.245041,68.876167 
	C95.356903,59.418125 112.302040,60.568161 125.518562,71.948837 
	C137.925507,82.632393 142.148285,99.789375 135.754883,114.545815 
	C128.947266,130.258286 116.737854,137.887909 99.254341,137.979187 
M119.060745,71.344040 
	C110.115585,66.539520 100.933289,64.312149 90.889679,67.934914 
	C77.238319,72.859009 67.404846,85.022377 66.903091,98.045631 
	C66.323708,113.083206 74.534149,126.200569 88.237335,132.130157 
	C100.186226,137.300644 116.080521,133.740082 125.838341,123.706978 
	C140.105026,109.037796 137.316498,85.592995 119.060745,71.344040 
z"/>
<path fill="none" opacity="1.000000" stroke="none" 
	d="
M135.848602,180.342865 
	C142.373001,198.551727 137.659607,213.741211 122.063362,225.557510 
	C110.376053,234.412292 91.242218,234.255081 78.609138,224.414520 
	C66.540764,215.013824 60.884232,202.566956 64.104355,187.063080 
	C67.290314,171.723648 76.966614,162.219223 91.752480,157.941971 
	C108.115158,153.208557 129.110565,161.938339 135.848602,180.342865 
M79.385681,168.886902 
	C67.607841,177.976166 63.894604,194.837067 70.560333,208.960602 
	C77.109665,222.837524 93.338753,231.196518 107.810501,227.660477 
	C121.358131,224.350235 130.526413,215.953979 133.627594,202.160995 
	C136.762726,188.216919 132.344147,176.315155 121.106544,167.673355 
	C110.345238,159.397842 98.251678,158.550751 85.937447,164.340790 
	C83.715706,165.385437 81.986008,167.476562 80.014763,169.014374 
	C80.014763,169.014374 80.084953,169.028549 79.385681,168.886902 
z"/>
<path fill="none" opacity="1.000000" stroke="none" 
	d="
M202.219147,82.027657 
	C201.607407,91.037468 196.022980,96.190262 187.596695,95.970253 
	C181.849121,95.820190 175.215637,88.675117 175.033813,82.438484 
	C174.846390,76.010078 180.990570,68.606430 186.791824,68.270203 
	C195.513947,67.764694 201.270508,72.743416 202.219147,82.027657 
z"/>
<path fill="none" opacity="1.000000" stroke="none" 
	d="
M184.105194,226.376083 
	C177.640350,222.938614 174.748932,217.086319 176.012360,210.539276 
	C176.949402,205.683594 181.953186,200.832977 186.858170,200.025421 
	C191.931641,199.190109 198.999146,202.992081 201.245697,207.895981 
	C203.575562,212.981689 202.212189,217.598923 199.085327,221.847626 
	C195.366776,226.900314 190.287994,227.937057 184.105194,226.376083 
z"/>
<path fill="#8181E9" opacity="1.000000" stroke="none" 
	d="
M156.594650,135.886230 
	C162.247650,121.947899 173.024567,114.925858 186.872360,113.181351 
	C202.949539,111.155998 218.292160,124.135406 222.217941,140.266159 
	C226.022705,155.899719 214.995728,175.999786 198.610291,180.078857 
	C174.030029,186.197998 158.576721,169.898621 155.733368,154.935211 
	C154.599350,148.967239 156.121094,142.494629 156.594650,135.886230 
M184.821899,178.097260 
	C203.478851,179.617966 218.112823,167.971939 219.766815,150.287354 
	C220.851654,138.688202 214.011780,125.532524 204.306305,120.549400 
	C191.597885,114.024437 179.520432,115.345535 169.067001,124.020340 
	C158.583725,132.719894 155.301773,144.098587 159.327286,156.748062 
	C163.037369,168.406311 171.185120,176.181213 184.821899,178.097260 
z"/>
<path fill="#8080E7" opacity="1.000000" stroke="none" 
	d="
M119.360321,71.552505 
	C137.316498,85.592995 140.105026,109.037796 125.838341,123.706978 
	C116.080521,133.740082 100.186226,137.300644 88.237335,132.130157 
	C74.534149,126.200569 66.323708,113.083206 66.903091,98.045631 
	C67.404846,85.022377 77.238319,72.859009 90.889679,67.934914 
	C100.933289,64.312149 110.115585,66.539520 119.360321,71.552505 
M131.565079,98.111870 
	C131.389938,96.958931 131.250244,95.799316 131.034241,94.654083 
	C128.517700,81.311409 118.348572,72.059830 105.710129,69.782036 
	C90.746819,67.085228 77.051971,78.192802 72.843697,87.398888 
	C67.590569,98.890717 69.810600,112.584122 78.594307,121.648315 
	C88.117714,131.475830 100.808617,134.051239 113.366371,128.704727 
	C125.787689,123.416306 132.176605,113.036804 131.565079,98.111870 
z"/>
<path fill="#7A7ADD" opacity="1.000000" stroke="none" 
	d="
M80.029152,169.084549 
	C81.986008,167.476562 83.715706,165.385437 85.937447,164.340790 
	C98.251678,158.550751 110.345238,159.397842 121.106544,167.673355 
	C132.344147,176.315155 136.762726,188.216919 133.627594,202.160995 
	C130.526413,215.953979 121.358131,224.350235 107.810501,227.660477 
	C93.338753,231.196518 77.109665,222.837524 70.560333,208.960602 
	C63.894604,194.837067 67.607841,177.976166 80.082733,169.179581 
	C72.902229,177.771500 67.945580,187.012985 69.867935,199.067886 
	C72.106369,213.104919 82.190895,223.541718 96.338646,225.743073 
	C109.981842,227.865936 123.395050,220.623322 129.429626,207.875259 
	C135.201981,195.681137 131.963425,179.917511 121.954094,170.848633 
	C111.891464,161.731491 96.016327,160.497360 84.381882,167.319336 
	C83.045433,168.102966 81.485474,168.505386 80.029152,169.084549 
z"/>
<path fill="none" opacity="1.000000" stroke="none" 
	d="
M184.373199,178.058716 
	C171.185120,176.181213 163.037369,168.406311 159.327286,156.748062 
	C155.301773,144.098587 158.583725,132.719894 169.067001,124.020340 
	C179.520432,115.345535 191.597885,114.024437 204.306305,120.549400 
	C214.011780,125.532524 220.851654,138.688202 219.766815,150.287354 
	C218.112823,167.971939 203.478851,179.617966 184.373199,178.058716 
z"/>
<path fill="none" opacity="1.000000" stroke="none" 
	d="
M131.624786,98.528389 
	C132.176605,113.036804 125.787689,123.416306 113.366371,128.704727 
	C100.808617,134.051239 88.117714,131.475830 78.594307,121.648315 
	C69.810600,112.584122 67.590569,98.890717 72.843697,87.398888 
	C77.051971,78.192802 90.746819,67.085228 105.710129,69.782036 
	C118.348572,72.059830 128.517700,81.311409 131.034241,94.654083 
	C131.250244,95.799316 131.389938,96.958931 131.624786,98.528389 
z"/>
<path fill="none" opacity="1.000000" stroke="none" 
	d="
M80.021957,169.049469 
	C81.485474,168.505386 83.045433,168.102966 84.381882,167.319336 
	C96.016327,160.497360 111.891464,161.731491 121.954094,170.848633 
	C131.963425,179.917511 135.201981,195.681137 129.429626,207.875259 
	C123.395050,220.623322 109.981842,227.865936 96.338646,225.743073 
	C82.190895,223.541718 72.106369,213.104919 69.867935,199.067886 
	C67.945580,187.012985 72.902229,177.771500 80.432365,169.250397 
	C80.084953,169.028549 80.014763,169.014374 80.021957,169.049469 
z"/>
</svg>
